<svg version="1.2" baseProfile="tiny-ps" xmlns="http://www.w3.org/2000/svg" viewBox="0 0 4000 4000" width="600" height="600">
	<title>3400_7_06-ai</title>
	<style>
		tspan { white-space:pre }
		.shp0 { fill: #ffffff } 
		.shp1 { fill: #000072 } 
		.shp2 { fill: #ff0031 } 
		.shp3 { fill: #ffd008 } 
	</style>
	<g id="Layer 1">
		<g id="&lt;Group&gt;">
			<g id="&lt;Group&gt;">
				<g id="&lt;Group&gt;">
					<g id="&lt;Group&gt;">
						<g id="&lt;Group&gt;">
							<path id="&lt;Path&gt;" class="shp0" d="M1631.64 1950.03C1629.9 2063.7 1595.37 2206.58 1419.15 2134.64C1234.3 2059.23 1111.13 1946.49 1049.62 1796.41C989.31 1768.73 948.06 1724.91 925.86 1664.96C912.32 1669.83 898.42 1669.56 884.18 1664.16C868.83 1658.35 852.98 1644.64 843.64 1614.63C828.74 1566.74 836.72 1534.26 867.59 1517.21C872.39 1470.9 889.15 1450.68 917.87 1456.55C876.38 1313.61 928.85 1307.2 947.43 1312.02C963.92 1316.3 981.76 1348.77 1000.93 1409.45C994.01 1349.83 1000.14 1311.23 1019.31 1293.64C1033.67 1280.48 1045.65 1282.26 1054.04 1287.38C1061.84 1292.1 1067.01 1300.2 1069.19 1309.09C1082.66 1362.65 1101.14 1411.53 1120.42 1453.56C1131.15 1477.01 1142.13 1498.33 1152.56 1517.21C1174.22 1556.32 1194.21 1587.47 1212.52 1610.66C1350.44 1719.36 1461.43 1774.75 1533.02 1802.58C1568.09 1816.19 1596.01 1841.72 1613 1873.47C1625.43 1896.47 1632.08 1922.75 1631.64 1950.03Z" />
						</g>
						<g id="&lt;Group&gt;">
							<path id="&lt;Compound Path&gt;" fill-rule="evenodd" class="shp1" d="M1504.1 2171.44C1476.91 2171.44 1446.33 2164.55 1412.56 2150.76C1154.48 2045.45 1053.89 1847.92 1036.31 1809.32C965.28 1774.28 928.95 1712.44 915.63 1684.84C904.08 1686.18 887.82 1685.7 871.35 1677.51C850.65 1667.21 835.74 1647.79 827.03 1619.8C808.58 1560.48 831.66 1523.15 851.32 1507.34C855.41 1480.4 865.41 1460.93 881.09 1449.42C886.07 1445.76 891.09 1443.32 895.82 1441.71C878.89 1375 881.51 1331.29 903.73 1308.39C918.37 1293.29 938.15 1291.67 951.78 1295.19C964.07 1298.36 975.44 1311.2 985.37 1327.81C989 1309.11 995.69 1291.7 1007.54 1280.84C1025.07 1264.78 1045.3 1261.73 1063.05 1272.51C1074.4 1279.39 1082.58 1290.88 1086.08 1304.85C1126.29 1465.07 1213.74 1583.56 1224.97 1598.32C1361.91 1706.02 1471.44 1760.01 1539.31 1786.34C1606.06 1812.24 1650.16 1878.13 1649.04 1950.31C1647.47 2052.04 1622.21 2119.79 1573.95 2151.68C1554.03 2164.85 1530.68 2171.43 1504.1 2171.44ZM925.77 1647.59C932.88 1647.59 939.6 1651.92 942.18 1658.91C942.48 1659.71 974.39 1742.76 1056.89 1780.61C1060.89 1782.45 1064.05 1785.74 1065.72 1789.82C1066.62 1791.99 1159.01 2009.73 1425.7 2118.57C1481.2 2141.21 1524.63 2142.59 1554.78 2122.67C1602.23 2091.31 1613.32 2011.34 1614.27 1949.77C1615.16 1892.07 1579.98 1839.43 1526.73 1818.77C1456.36 1791.46 1342.86 1735.55 1201.75 1624.29C1200.68 1623.45 1199.72 1622.49 1198.88 1621.42C1194.73 1616.18 1096.95 1491.03 1052.35 1313.32C1051.11 1308.35 1048.43 1304.31 1045 1302.23C1042.9 1300.97 1039.39 1298.83 1031.04 1306.48C1015.78 1320.47 1014.35 1373.94 1018.2 1407.44C1019.23 1416.34 1013.32 1424.56 1004.56 1426.43C995.8 1428.34 987.05 1423.22 984.35 1414.67C971.46 1373.93 952.1 1334.03 942.68 1328.77C940.58 1328.3 933.8 1327.34 928.69 1332.6C923.51 1337.95 908.62 1362.31 934.59 1451.7C936.33 1457.7 935.16 1464.27 930.81 1468.76C926.45 1473.24 920.47 1475.15 914.42 1473.58C914.47 1473.66 914.03 1473.54 913.29 1473.54C911.12 1473.54 906.11 1474 901.19 1477.81C892.62 1484.47 886.98 1498.72 884.88 1519.01C884.3 1524.68 880.98 1529.7 875.99 1532.45C872.76 1534.37 842.96 1553.93 860.24 1609.47C865.97 1627.89 874.82 1640.26 886.55 1646.22C902.51 1654.35 919.95 1648.59 920.13 1648.53C921.99 1647.89 923.9 1647.59 925.77 1647.59Z" />
						</g>
						<g id="&lt;Group&gt;" style="opacity: 0.302">
							<path id="&lt;Path&gt;" class="shp1" d="M1631.64 1950.03C1629.9 2063.7 1595.37 2206.58 1419.15 2134.64C1234.3 2059.23 1111.13 1946.49 1049.62 1796.41C989.31 1768.73 948.06 1724.91 925.86 1664.96C912.32 1669.83 898.42 1669.56 884.18 1664.16C874.38 1632.57 877.01 1604.26 892.08 1579.26C889.23 1537.36 900.49 1503.69 925.86 1478.26C987.62 1437.12 1064.28 1441.49 1120.42 1453.56C1131.15 1477.01 1142.13 1498.33 1152.56 1517.21C1088.47 1491.5 1026.49 1483.44 966.6 1493.01C901.29 1529.91 910 1565.83 992.74 1600.77L1084.74 1637.78C979.17 1630.43 951.5 1711.71 1049.62 1724.03C1115.07 1732.21 1169.37 1694.42 1212.52 1610.66C1213.95 1673.45 1183.03 1727.74 1119.77 1773.51C1150.17 1831.29 1184.01 1876.76 1217.07 1912.33C1284.46 1984.81 1396.47 1990.51 1473.01 1927.77C1533.09 1878.52 1586.1 1872.53 1613 1873.47C1625.43 1896.47 1632.08 1922.75 1631.64 1950.03Z" />
						</g>
						<g id="&lt;Group&gt;">
							<g id="&lt;Group&gt;">
								<path id="&lt;Path&gt;" class="shp1" d="M1051.86 1813.66L1047.41 1779.17C1187.71 1761.04 1194.91 1616.13 1195.14 1609.97L1229.89 1611.31C1229.82 1613.11 1220.98 1791.8 1051.86 1813.66Z" />
							</g>
							<g id="&lt;Group&gt;">
								<path id="&lt;Path&gt;" class="shp1" d="M1150.72 1542.94C1117.62 1529.93 1082.38 1518.38 1048.02 1511.58C1030.79 1508.44 1013.53 1506.29 997.52 1507.31C981.63 1508.48 967.24 1512.36 958.69 1520.95C954.18 1525.37 951.14 1530.57 950.47 1534.35C949.44 1538.09 950.56 1542.79 953.92 1548.54C957.29 1554.2 962.71 1560.07 968.9 1565.47C975.08 1570.96 982.3 1575.82 989.55 1580.77C1019.14 1600.28 1052.13 1617.21 1084.77 1637.79C1065.3 1637.4 1046.35 1633.96 1027.73 1629.11C1009.15 1624.07 990.92 1617.38 973.39 1608.03C964.6 1603.37 956.06 1598.05 947.71 1591.71C939.43 1585.31 931.23 1578.02 924.22 1568.06C920.72 1563.16 917.68 1557.29 915.53 1550.73C914.45 1547.47 913.95 1543.79 913.32 1540.29C913.26 1536.66 912.97 1532.89 913.5 1529.3C914.5 1522.03 916.89 1515.19 920.09 1509.45C923.23 1503.61 927.1 1498.68 931.34 1494.05C940.02 1484.8 951.03 1478.31 961.95 1474.27C972.91 1470.11 983.97 1468.31 994.66 1467.41C1016.04 1465.9 1036.3 1468.14 1055.76 1472.16C1075.25 1476.04 1093.99 1481.62 1112.22 1488.24C1130.56 1494.91 1147.98 1502.32 1165.68 1511.55L1150.72 1542.94Z" />
							</g>
							<g id="&lt;Group&gt;">
								<path id="&lt;Path&gt;" class="shp1" d="M947.22 1642.52C942.11 1642.52 937.02 1641.82 931.94 1640.43C877.41 1625.45 853.27 1531.94 850.69 1521.32L884.48 1513.11C884.49 1513.12 884.49 1513.12 884.49 1513.13C892.4 1545.55 914.79 1599.67 941.17 1606.9C952.29 1609.96 965.46 1603.79 980.31 1588.61L1005.17 1612.92C985.91 1632.61 966.49 1642.52 947.22 1642.52Z" />
							</g>
							<g id="&lt;Group&gt;">
								<path id="&lt;Path&gt;" class="shp1" d="M933.75 1680.44L918 1649.44L917.51 1649.7C919.08 1648.75 926.82 1643.19 924.65 1627.03L959.12 1622.4C963.6 1655.76 945.28 1674.58 933.75 1680.44Z" />
							</g>
							<g id="&lt;Group&gt;">
								<path id="&lt;Path&gt;" class="shp1" d="M927.52 1519.24C907.86 1486.57 901.33 1461.95 901.06 1460.92L934.7 1452.12C934.76 1452.32 940.46 1473.28 957.32 1501.32L927.52 1519.24Z" />
							</g>
							<g id="&lt;Group&gt;">
								<path id="&lt;Path&gt;" class="shp1" d="M1003.11 1493.72C990.55 1461.54 983.97 1413.79 983.7 1411.77L1018.16 1407.1C1018.22 1407.55 1024.46 1452.78 1035.51 1481.08L1003.11 1493.72Z" />
							</g>
						</g>
					</g>
					<g id="&lt;Group&gt;">
						<g id="&lt;Group&gt;">
							<path id="&lt;Path&gt;" class="shp0" d="M2747.67 1875.95C2695.16 2480.48 2452.87 2809.17 2344.56 2928.1C2315.8 2959.7 2268.75 2966.66 2231.88 2945.09L2149.06 2896.75L2028.24 2838.68L2066.49 2748.36L2483.67 1762.78C2537.52 1760.3 2581.54 1767.4 2617.11 1779.08C2681.27 1800.17 2724.79 1832.47 2747.67 1875.95Z" />
						</g>
						<g id="&lt;Group&gt;" style="opacity: 0.302">
							<path id="&lt;Path&gt;" class="shp1" d="M2193.76 2825.17L2148.3 2791.03L2066.49 2748.36L2483.67 1762.78C2484.21 1762.76 2484.74 1762.73 2485.28 1762.71C2561.8 1759.44 2626.71 1818.32 2632.39 1894.7C2660.87 2277.41 2474.38 2626.73 2366 2794.46C2328.36 2852.72 2249.23 2866.82 2193.76 2825.17Z" />
						</g>
						<g id="&lt;Group&gt;">
							<path id="&lt;Compound Path&gt;" fill-rule="evenodd" class="shp1" d="M2277.54 2974.8C2258.85 2974.8 2240.03 2970.01 2223.11 2960.12L2140.92 2912.11L2020.71 2854.33C2012.35 2850.3 2008.61 2840.42 2012.23 2831.88L2467.63 1756.02C2470.24 1749.85 2476.16 1745.73 2482.85 1745.43C2691.11 1735.79 2760.21 1862.44 2763.05 1867.83C2764.61 1870.78 2765.28 1874.12 2764.99 1877.44C2711.7 2490.89 2462.21 2824.74 2357.42 2939.8C2336.54 2962.73 2307.21 2974.8 2277.54 2974.8ZM2050.72 2830.16L2156.62 2881.07C2157.04 2881.27 2157.45 2881.49 2157.86 2881.73L2240.65 2930.09C2270.36 2947.46 2308.66 2941.69 2331.71 2916.38C2433.8 2804.28 2676.48 2479.33 2729.86 1879.97C2717.18 1860.03 2654.37 1776.1 2495.33 1779.8L2050.72 2830.16Z" />
						</g>
					</g>
					<g id="&lt;Group&gt;">
						<g id="&lt;Group&gt;">
							<path id="&lt;Path&gt;" class="shp0" d="M3109.65 1773.51C3122.4 2015.19 3055.86 2125.92 2910.03 2105.68C2833.36 2176.46 2698.31 2221.7 2504.88 2241.41C2420.72 2551.22 2272.87 2824.82 2062.07 2965.36C1851.28 3105.86 1728.86 3368.82 1715 3453.98C1701.19 3539.18 1560.64 3587.07 1513.79 3554.24C1466.94 3521.4 1162.5 3353.92 1086.88 3317.7C1036.5 3293.59 1013.09 3266.27 1016.63 3235.73C1019.91 3200.11 1027.26 3170.3 1037.65 3145.41C1088.98 3022.23 1196.25 2989.71 1359.43 3047.83C1414.78 2920.09 1471.73 2822.15 1530.29 2754.02C1520.71 2748.69 1507.76 2741.77 1491.44 2733.25C1336.03 2739.66 1093.29 2871.67 1025.13 2965.36C992.93 3009.68 950.21 3039.19 908.97 3052.16C889.99 3058.12 871.26 3060.6 854.07 3059.31C829.63 3057.62 808.22 3048.43 793.07 3031.34C744.08 2976 597.17 2892.93 509.88 2812.05C451.69 2758.09 441.04 2702.73 477.94 2645.96C488.07 2633.54 498.16 2622.41 508.14 2612.48C620.13 2500.96 722.9 2501.47 816.47 2614.02C1039.34 2423.81 1217.13 2348.57 1349.84 2388.32C1386.04 2171.14 1454.16 2006.12 1554.18 1893.24C1554.18 1893.21 1554.18 1893.19 1554.18 1893.19C1726.58 1780.25 1978.38 1762.18 2309.58 1838.99C2368.08 1846.64 2433.82 1851.63 2506.82 1853.95C2608.17 1857.08 2728.25 1853.35 2814.74 1827.27C2994.64 1773.02 3027.68 1644.19 3084.07 1661.73C3139.56 1678.97 3110.64 1770.43 3109.7 1773.51L3109.65 1773.51Z" />
						</g>
						<g id="&lt;Group&gt;" style="opacity: 0.302">
							<path id="&lt;Path&gt;" class="shp1" d="M2910.03 2105.68C2833.36 2176.46 2698.31 2221.7 2504.88 2241.41C2420.72 2551.22 2272.87 2824.82 2062.07 2965.36C1851.28 3105.86 1728.86 3368.82 1715 3453.98C1701.19 3539.18 1560.64 3587.07 1513.79 3554.24C1466.94 3521.4 1162.5 3353.92 1086.88 3317.7C1036.5 3293.59 1013.09 3266.27 1016.63 3235.73C1019.91 3200.11 1027.26 3170.3 1037.65 3145.41C1135.73 3248.09 1241.94 3299.99 1337.2 3324.51C1487.25 3363.15 1644.3 3295.73 1721.28 3161.27C1763.72 3087.16 1805.46 3023.46 1842.87 2970.83C1929.32 2849.21 1908.76 2659.27 1753.87 2608.7C1580.62 2552.14 1483.92 2504.95 1463.76 2467.11L1965.19 2549.63L1980.45 2447.44L2133.99 2486.79C2204.01 2504.74 2277.57 2471.13 2308.49 2405.79C2336.56 2346.49 2347.54 2289.23 2349.83 2239.52C2353.78 2153.52 2280.07 2084.7 2194.38 2092.91C1667.23 2143.43 1556.26 1897.85 1554.18 1893.24C1554.18 1893.21 1554.18 1893.19 1554.18 1893.19C1726.58 1780.25 1978.38 1762.18 2309.58 1838.99C2368.08 1846.64 2433.82 1851.63 2506.82 1853.95C2544.81 1911.13 2542.08 1992.38 2533.94 2047.8C2528.75 2083.18 2556.41 2114.86 2592.16 2114.02C2672.12 2112.15 2748.02 2094.41 2819.86 2060.82L2866.08 2045.37C2897.36 2034.91 2919.95 2007.31 2923.52 1974.52C2923.55 1974.26 2923.58 1974.06 2923.59 1973.93C2913.49 1962.76 2913.23 1945.18 2922.8 1921.16C2918.53 1824.78 2980.81 1775.57 3109.65 1773.51C3122.4 2015.19 3055.86 2125.92 2910.03 2105.68Z" />
						</g>
						<g id="&lt;Group&gt;" style="opacity: 0.302">
							<path id="&lt;Path&gt;" class="shp1" d="M1687.33 2628.92C1637.65 2650.91 1585.3 2692.61 1530.29 2754.02C1520.71 2748.69 1507.76 2741.77 1491.44 2733.25C1336.03 2739.66 1093.29 2871.67 1025.13 2965.36C992.93 3009.68 950.21 3039.19 908.97 3052.16C889.99 3058.12 871.26 3060.6 854.07 3059.31C829.63 3057.62 808.22 3048.43 793.07 3031.34C744.08 2976 597.17 2892.93 509.88 2812.05C451.69 2758.09 441.04 2702.73 477.94 2645.96C488.07 2633.54 498.16 2622.41 508.14 2612.48C510.93 2717.9 624.85 2797.5 730.52 2848.81C817.6 2891.1 922 2880.55 996.62 2818.89C1100.1 2733.39 1234.9 2693.15 1312.31 2675.93C1345.38 2668.57 1368.3 2638.5 1366.92 2604.64C1365.71 2574.63 1368.8 2551.13 1372.57 2534.35C1375.5 2521.33 1392.56 2518.11 1400.29 2529C1436.21 2579.55 1471.65 2616.24 1495.71 2638.6C1511.84 2653.6 1535.23 2657.89 1555.53 2649.37C1598.07 2631.51 1642 2624.69 1687.33 2628.92Z" />
						</g>
						<g id="&lt;Group&gt;">
							<path id="&lt;Compound Path&gt;" fill-rule="evenodd" class="shp1" d="M1555.43 3582.04C1534.74 3582.04 1516.75 3577.54 1503.82 3568.48C1458.7 3536.86 1153.46 3368.88 1079.39 3333.41C993.59 3292.33 999.08 3236.11 999.36 3233.74C1007.51 3145.32 1040.78 3081.68 1098.21 3045.01C1187.54 2987.97 1307.32 3014.43 1349.77 3026.6C1412.75 2884.91 1476.6 2794.66 1503.72 2759.4C1497.36 2756.01 1491.37 2752.86 1487.56 2750.86C1336.6 2759.41 1104.65 2885.59 1039.21 2975.57C995.87 3035.16 931.01 3073.99 869.93 3076.91C832.96 3078.69 801.03 3066.59 780.04 3042.87C756.49 3016.24 706.25 2980.93 653.07 2943.55C600.92 2906.9 541.82 2865.35 498.07 2824.8C401.15 2734.97 462.73 2637.46 463.37 2636.49C463.71 2635.96 464.08 2635.45 464.48 2634.96C525.97 2559.72 592.13 2521.43 661.12 2521.14C661.38 2521.14 661.64 2521.14 661.91 2521.14C737.55 2521.14 794.16 2567.09 817.81 2590.14C1093.93 2359.17 1278.03 2359.99 1335.74 2367.9C1392.48 2052.45 1535 1888.59 1541.15 1881.65C1542.17 1880.49 1543.35 1879.47 1544.64 1878.63C1803.51 1709.07 2282.03 1814.85 2312.65 1821.86C2330.73 1824.14 2639.76 1861.93 2809.71 1810.64C2907.29 1781.19 2959.46 1729.24 2997.55 1691.31C3029.49 1659.5 3054.7 1634.37 3089.24 1645.11C3105.52 1650.18 3118.24 1660.81 3126.01 1675.88C3144.23 1711.17 3131.35 1761.6 3127.15 1775.72C3134.18 1917.79 3106.21 2018.79 3044 2075.92C2993.95 2121.88 2937.23 2124.42 2916.08 2123.58C2807.59 2217.35 2574.55 2250.58 2518.54 2257.37C2425.29 2593.41 2266.86 2849.71 2071.71 2979.81C1865.26 3117.45 1745.17 3376.78 1732.17 3456.78C1724.96 3501.15 1687.36 3541.69 1631.6 3565.22C1605.08 3576.4 1578.57 3582.04 1555.43 3582.04ZM1233.27 3044.74C1194.35 3044.74 1152.15 3051.79 1116.82 3074.39C1068.98 3105 1041.09 3159.82 1033.95 3237.35C1033.86 3238.73 1032.55 3272.42 1094.41 3302.04C1171.43 3338.93 1476.38 3506.77 1523.78 3540C1540.78 3551.92 1580.45 3549.05 1618.08 3533.18C1662.75 3514.33 1692.57 3483.68 1697.85 3451.2C1712 3364.09 1834.13 3096.4 2052.42 2950.88C2242.77 2823.97 2397.5 2570.4 2488.11 2236.86C2489.99 2229.91 2495.96 2224.85 2503.12 2224.12C2505.97 2223.83 2788.86 2193.91 2898.22 2092.91C2902.04 2089.37 2907.25 2087.73 2912.41 2088.46C2914.74 2088.74 2971.68 2095.54 3020.98 2049.84C3074.52 2000.23 3099.17 1905 3092.27 1774.44C3092.15 1772.3 3092.44 1770.15 3093.1 1768.12C3097.55 1754.43 3106.58 1713.98 3095.09 1691.78C3091.54 1684.93 3086.4 1680.65 3078.92 1678.33C3065.05 1674 3049.9 1688.26 3022.09 1715.95C2983.69 1754.19 2925.66 1811.97 2819.76 1843.93C2638.36 1898.69 2320.76 1858 2307.33 1856.24C2306.77 1856.17 2306.21 1856.07 2305.66 1855.94C2300.77 1854.81 1815.73 1745 1565.77 1906.37C1550.45 1924.71 1416.93 2091.65 1367 2391.19C1366.18 2396.11 1363.28 2400.45 1359.05 2403.09C1354.81 2405.73 1349.64 2406.43 1344.86 2404.99C1343.03 2404.47 1149.1 2353 827.78 2627.25C824.24 2630.27 819.64 2631.76 815.01 2631.35C810.37 2630.95 806.09 2628.72 803.12 2625.14C802.56 2624.47 744.13 2555.91 661.88 2555.91C661.58 2555.91 661.28 2555.91 660.97 2555.91C603.22 2556.28 546.41 2589.98 492.12 2656.11C487.37 2664.02 449.63 2732.49 521.71 2799.29C563.74 2838.25 619.32 2877.32 673.07 2915.1C730.36 2955.36 779.83 2990.14 806.09 3019.83C823.85 3039.9 849.72 3043.06 868.28 3042.17C918.3 3039.78 974.36 3005.61 1011.09 2955.11C1082.94 2856.32 1328.44 2722.56 1490.73 2715.89C1493.8 2715.75 1496.79 2716.44 1499.49 2717.84C1500.49 2718.37 1524.34 2730.82 1538.74 2738.82C1543.31 2741.35 1546.49 2745.81 1547.41 2750.95C1548.33 2756.1 1546.89 2761.38 1543.49 2765.35C1542.63 2766.35 1456.24 2868.18 1375.39 3054.76C1371.75 3063.16 1362.22 3067.31 1353.59 3064.23C1352.72 3063.92 1297.45 3044.74 1233.27 3044.74Z" />
						</g>
						<g id="&lt;Group&gt;">
							<g id="&lt;Group&gt;">
								<path id="&lt;Path&gt;" class="shp1" d="M828.65 2626.45C824.74 2629.35 820.49 2632.34 816.15 2635.09C811.84 2637.91 807.39 2640.62 802.92 2643.33C798.4 2646 793.91 2648.73 789.21 2651.33C784.58 2653.98 779.92 2656.66 774.97 2659.27C776.39 2653.86 778.34 2648.72 780.42 2643.64C782.48 2638.55 784.86 2633.68 787.3 2628.84C789.8 2624.05 792.4 2619.33 795.21 2614.79C798.01 2610.2 800.94 2605.89 804.32 2601.6L828.65 2626.45Z" />
							</g>
							<g id="&lt;Group&gt;">
								<path id="&lt;Path&gt;" class="shp1" d="M1144.55 2872.65C906.89 2734.03 912.73 2533.54 913.09 2525.07L947.84 2526.53C947.55 2534.16 943.32 2715.01 1162.07 2842.61L1144.55 2872.65Z" />
							</g>
							<g id="&lt;Group&gt;">
								<path id="&lt;Path&gt;" class="shp1" d="M1480.8 2747.01C1478.96 2745.44 1477.85 2744.37 1476.51 2743.09C1475.19 2741.86 1474.02 2740.6 1472.81 2739.34C1470.42 2736.83 1468.14 2734.3 1465.92 2731.73C1461.46 2726.63 1457.36 2721.3 1453.48 2715.86C1445.64 2705.05 1438.68 2693.77 1432.48 2682.17C1426.52 2670.42 1420.79 2658.67 1416.47 2646.36C1414.11 2640.31 1412.41 2633.97 1410.59 2627.77C1408.91 2621.49 1407.7 2615.07 1406.54 2608.7L1428.53 2640.05C1435.69 2650.36 1443.3 2660.22 1451.12 2669.75C1459.05 2679.2 1467.3 2688.25 1475.88 2696.76C1480.15 2701.03 1484.65 2705.03 1489.05 2708.99C1491.26 2710.95 1493.52 2712.85 1495.77 2714.65L1499.11 2717.3C1500.15 2718.12 1501.45 2719.1 1502.08 2719.51L1480.8 2747.01Z" />
							</g>
							<g id="&lt;Group&gt;">
								<path id="&lt;Path&gt;" class="shp1" d="M1516.59 2743.32C1522.25 2735.74 1527.69 2729.29 1533.72 2722.81C1539.59 2716.35 1545.85 2710.27 1552.14 2704.25C1558.52 2698.32 1565.12 2692.63 1571.81 2687.06C1578.64 2681.66 1585.46 2676.26 1592.6 2671.25C1606.84 2661.26 1621.53 2651.82 1637.25 2644.27C1641.21 2642.42 1645.2 2640.64 1649.2 2638.95C1653.35 2637.49 1657.45 2635.97 1661.61 2634.63L1667.86 2632.69C1669.98 2632.11 1672.17 2631.71 1674.31 2631.22C1678.6 2630.25 1682.95 2629.49 1687.33 2628.93C1674.5 2641.33 1661.44 2651.52 1648.91 2662.48C1645.69 2665.04 1642.59 2667.79 1639.44 2670.45C1636.33 2673.17 1633.07 2675.63 1629.98 2678.34C1623.78 2683.75 1617.64 2689.16 1611.69 2694.81C1605.57 2700.23 1599.79 2706.06 1593.96 2711.78L1585.25 2720.4C1582.41 2723.34 1579.63 2726.34 1576.73 2729.2C1571.07 2735.07 1565.53 2741.05 1560 2747L1544.01 2764.72L1516.59 2743.32Z" />
							</g>
							<g id="&lt;Group&gt;">
								<path id="&lt;Path&gt;" class="shp1" d="M1375.81 3053.7C1373.26 3059.55 1370.4 3065.55 1367.36 3071.38C1364.36 3077.26 1361.14 3083.08 1357.87 3088.9C1351.33 3100.57 1344.5 3112.08 1336.28 3123.7C1334.1 3109.58 1334.69 3095.68 1335.98 3082.09C1336.64 3075.28 1337.5 3068.52 1338.66 3061.85C1339.79 3055.14 1341.19 3048.62 1343.06 3042L1375.81 3053.7Z" />
							</g>
							<g id="&lt;Group&gt;">
								<path id="&lt;Path&gt;" class="shp1" d="M1849.22 3194.96C1685.84 3188.35 1573.57 3117.61 1508.17 3059.42C1437.2 2996.3 1405.16 2935.12 1403.83 2932.55L1434.73 2916.59L1419.28 2924.57L1434.72 2916.57C1435.93 2918.88 1558.55 3148.4 1850.63 3160.21L1849.22 3194.96Z" />
							</g>
							<g id="&lt;Group&gt;">
								<path id="&lt;Path&gt;" class="shp1" d="M2905.75 2123.22C2869.95 2123.22 2802.93 2099.75 2772.16 2007.69C2732.55 1889.16 2799.37 1818.17 2802.23 1815.2L2827.3 1839.3C2825.05 1841.69 2772.45 1898.85 2805.15 1996.67C2836.83 2091.49 2905.93 2088.54 2908.85 2088.33L2911.33 2123.02C2909.57 2123.15 2907.71 2123.22 2905.75 2123.22Z" />
							</g>
							<g id="&lt;Group&gt;">
								<path id="&lt;Path&gt;" class="shp1" d="M2507.8 2258.56C2498.02 2261.15 2488.76 2262.05 2479.16 2262.56C2469.62 2262.97 2460.05 2262.67 2450.49 2261.77C2440.94 2260.89 2431.4 2259.37 2421.97 2256.98C2412.55 2254.74 2403.21 2251.57 2394.22 2247.09C2403.71 2243.59 2412.86 2241.19 2421.94 2238.78C2431.01 2236.37 2439.98 2234.34 2448.9 2232.41C2457.82 2230.51 2466.7 2228.81 2475.57 2227.32C2484.37 2225.96 2493.48 2224.6 2501.97 2224.27L2502.65 2224.25C2512.29 2223.88 2520.4 2231.38 2520.77 2241.02C2521.09 2249.33 2515.52 2256.51 2507.8 2258.56Z" />
							</g>
						</g>
					</g>
					<g id="&lt;Group&gt;">
						<g id="&lt;Group&gt;">
							<g id="&lt;Group&gt;">
								<path id="&lt;Path&gt;" class="shp0" d="M1551.6 1698.69L1465.35 1698.69C1394.31 1698.69 1336.72 1641.1 1336.72 1570.06L1336.72 1307.8C1336.72 1252.23 1381.77 1207.19 1437.33 1207.19L1551.6 1207.19L1551.6 1698.69Z" />
							</g>
							<g id="&lt;Group&gt;" style="opacity: 0.302">
								<path id="&lt;Path&gt;" class="shp1" d="M1462.15 1558.21L1551.6 1558.21L1551.6 1698.69L1462.15 1698.69C1392.88 1698.69 1336.72 1642.54 1336.72 1573.27L1336.72 1432.79C1336.72 1502.05 1392.88 1558.21 1462.15 1558.21Z" />
							</g>
							<g id="&lt;Group&gt;">
								<path id="&lt;Compound Path&gt;" fill-rule="evenodd" class="shp1" d="M1568.99 1716.08L1465.35 1716.08C1384.84 1716.08 1319.34 1650.58 1319.34 1570.07L1319.34 1307.79C1319.34 1242.73 1372.27 1189.8 1437.33 1189.8L1568.99 1189.8L1568.99 1716.08ZM1437.33 1224.58C1391.44 1224.58 1354.11 1261.91 1354.11 1307.79L1354.11 1570.07C1354.11 1631.4 1404.01 1681.31 1465.35 1681.31L1534.22 1681.31L1534.22 1224.58L1437.33 1224.58Z" />
							</g>
						</g>
						<g id="&lt;Group&gt;">
							<g id="&lt;Group&gt;">
								<path id="&lt;Path&gt;" class="shp0" d="M2504.89 1207.19L2619.16 1207.19C2674.72 1207.19 2719.77 1252.23 2719.77 1307.8L2719.77 1570.06C2719.77 1641.1 2662.18 1698.69 2591.14 1698.69L2504.89 1698.69L2504.89 1207.19Z" />
							</g>
							<g id="&lt;Group&gt;" style="opacity: 0.302">
								<path id="&lt;Path&gt;" class="shp1" d="M2719.77 1432.79L2719.77 1573.27C2719.77 1642.54 2663.61 1698.69 2594.34 1698.69L2504.89 1698.69L2504.89 1558.21L2594.34 1558.21C2663.61 1558.21 2719.77 1502.05 2719.77 1432.79Z" />
							</g>
							<g id="&lt;Group&gt;">
								<path id="&lt;Compound Path&gt;" fill-rule="evenodd" class="shp1" d="M2591.14 1716.08L2487.5 1716.08L2487.5 1189.8L2619.16 1189.8C2684.22 1189.8 2737.15 1242.73 2737.15 1307.79L2737.15 1570.07C2737.15 1650.58 2671.65 1716.08 2591.14 1716.08ZM2522.27 1681.31L2591.14 1681.31C2652.48 1681.31 2702.38 1631.4 2702.38 1570.07L2702.38 1307.79C2702.38 1261.91 2665.05 1224.58 2619.16 1224.58L2522.27 1224.58L2522.27 1681.31Z" />
							</g>
						</g>
						<g id="&lt;Group&gt;">
							<g id="&lt;Group&gt;">
								<path id="&lt;Path&gt;" class="shp0" d="M2502.31 1801.09L2502.31 1893.18C2415.56 1991.91 2257.54 2041.27 2028.24 2041.27C1798.95 2041.27 1640.93 1991.91 1554.18 1893.18L1554.18 1801.09L2502.31 1801.09Z" />
							</g>
							<g id="&lt;Group&gt;" style="opacity: 0.302">
								<path id="&lt;Path&gt;" class="shp1" d="M2028.24 1801.09L2028.24 2002.18C1798.95 2002.18 1640.93 1950.62 1554.18 1847.5L1554.18 1801.09L2028.24 1801.09Z" />
							</g>
							<g id="&lt;Group&gt;" style="opacity: 0.302">
								<path id="&lt;Path&gt;" class="shp1" d="M2502.31 1801.09L2502.31 1847.5C2415.56 1950.62 2257.54 2002.18 2028.24 2002.18L2028.24 1801.09L2502.31 1801.09Z" />
							</g>
							<g id="&lt;Group&gt;">
								<path id="&lt;Compound Path&gt;" fill-rule="evenodd" class="shp1" d="M2028.25 2058.66C1680.43 2058.66 1546.63 1910.94 1541.1 1904.65C1538.32 1901.48 1536.78 1897.4 1536.78 1893.18L1536.78 1801.09C1536.78 1791.48 1544.56 1783.7 1554.17 1783.7L2502.33 1783.7C2511.93 1783.7 2519.71 1791.48 2519.71 1801.09L2519.71 1893.18C2519.71 1897.4 2518.18 1901.48 2515.39 1904.65C2509.86 1910.94 2376.06 2058.66 2028.25 2058.66ZM1571.55 1886.06C1596.46 1909.97 1730.86 2023.88 2028.25 2023.88C2326.92 2023.88 2460.16 1910.12 2484.94 1886.11L2484.94 1818.47L1571.55 1818.47L1571.55 1886.06Z" />
							</g>
						</g>
						<g id="&lt;Group&gt;">
							<g id="&lt;Group&gt;">
								<path id="&lt;Path&gt;" class="shp0" d="M1445.62 1258.68C1515.96 1012.42 1745.01 832.79 2028.24 832.79C2311.48 832.79 2540.53 1012.42 2610.87 1258.68C2738.25 1725.97 2544.05 1959.61 2028.24 1959.61C1512.44 1959.61 1318.24 1725.97 1445.62 1258.68Z" />
							</g>
							<g id="&lt;Group&gt;" style="opacity: 0.302">
								<path id="&lt;Path&gt;" class="shp1" d="M2028.25 1959.61C1686.62 1959.61 1533.11 1822.95 1468.17 1670.31C1557.05 1763.17 1704.11 1830.44 1943.79 1830.44C2459.59 1830.44 2653.8 1596.8 2526.42 1129.5C2517.62 1098.72 2506.35 1068.97 2492.79 1040.48C2546.95 1103.24 2587.62 1177.28 2610.87 1258.68C2738.25 1725.97 2544.05 1959.61 2028.25 1959.61Z" />
							</g>
							<g id="&lt;Group&gt;">
								<path id="&lt;Compound Path&gt;" fill-rule="evenodd" class="shp1" d="M2028.25 1977C1785.96 1977 1611.21 1909.07 1508.88 1775.1C1347.08 1563.3 1425.43 1266.63 1428.84 1254.1C1503.81 991.62 1744.67 815.41 2028.25 815.41C2311.82 815.41 2552.68 991.62 2627.59 1253.9C2631.07 1266.63 2709.41 1563.3 2547.61 1775.1C2445.27 1909.07 2270.53 1977 2028.25 1977ZM2028.25 850.18C1760.36 850.18 1532.94 1016.26 1462.34 1263.45C1461.61 1266.14 1385.25 1556.19 1536.64 1754.16C1632.07 1878.95 1797.47 1942.22 2028.25 1942.22C2259.02 1942.22 2424.42 1878.95 2519.85 1754.16C2671.24 1556.19 2594.89 1266.14 2594.1 1263.24C2523.55 1016.26 2296.13 850.18 2028.25 850.18Z" />
							</g>
						</g>
						<g id="&lt;Group&gt;">
							<g id="&lt;Group&gt;">
								<path id="&lt;Path&gt;" class="shp1" d="M1516.83 1507.02C1516.83 1242.66 1687.3 1117.05 2028.24 1130.2C2369.19 1117.05 2539.66 1242.66 2539.66 1507.02C2539.69 1734.01 2369.22 1847.5 2028.24 1847.5C1687.27 1847.5 1516.8 1734.01 1516.83 1507.02Z" />
							</g>
							<g id="&lt;Group&gt;" style="opacity: 0.502">
								<path id="&lt;Path&gt;" class="shp0" d="M2518.05 1378.03C2431.6 1244.1 2278.27 1181.37 2058.05 1189.82C2028.88 1188.71 1993.66 1190.66 1952.39 1195.68C1942.15 1196.93 1933.58 1203.57 1929.1 1212.87C1914.46 1243.21 1869.51 1278.22 1810.5 1301.84C1753.74 1324.57 1699.13 1330.7 1666.99 1320.59C1656.95 1317.43 1645.88 1320.36 1638.47 1327.83C1583.99 1382.79 1546.64 1459.51 1546.64 1566.63C1546.65 1592.14 1553.08 1621.85 1565.91 1655.75C1533.21 1604.16 1516.85 1554.59 1516.83 1507.02C1516.83 1242.66 1687.3 1117.05 2028.25 1130.2C2289.95 1120.12 2453.22 1202.73 2518.05 1378.03Z" />
							</g>
							<g id="&lt;Group&gt;">
								<path id="&lt;Compound Path&gt;" fill-rule="evenodd" class="shp1" d="M2028.25 1864.89C1756.86 1864.89 1627.54 1768.53 1566.83 1687.7C1500.19 1598.96 1499.44 1510.73 1499.44 1507.02C1499.44 1402.16 1533.99 1315.75 1602.13 1250.19C1751.81 1106.17 2009.88 1112.16 2028.25 1112.8C2046.6 1112.17 2304.68 1106.16 2454.36 1250.19C2522.5 1315.75 2557.05 1402.16 2557.05 1507.02C2557.05 1510.73 2556.3 1598.96 2489.66 1687.7C2428.96 1768.53 2299.63 1864.89 2028.25 1864.89ZM2017.83 1147.46C1969.32 1147.46 1751.67 1154.46 1626.14 1275.34C1565.14 1334.08 1534.22 1412.03 1534.22 1507.02C1534.22 1507.79 1535.3 1588.83 1595.84 1668.4C1676.33 1774.19 1825.85 1830.11 2028.25 1830.11C2230.64 1830.11 2380.16 1774.19 2460.66 1668.4C2521.19 1588.83 2522.27 1507.79 2522.27 1506.98C2522.27 1412.03 2491.35 1334.08 2430.35 1275.34C2289.19 1139.4 2031.52 1147.47 2028.91 1147.58L2028.25 1147.6L2027.58 1147.58C2027.3 1147.57 2023.87 1147.46 2017.83 1147.46Z" />
							</g>
						</g>
					</g>
					<g id="&lt;Group&gt;">
						<g id="&lt;Group&gt;">
							<g id="&lt;Group&gt;">
								<path id="&lt;Path&gt;" class="shp0" d="M3100.32 2303.02L3100.32 2303.02C3082.13 2305.43 3065.44 2292.63 3063.03 2274.44L2905.34 1083.35C2902.93 1065.16 2915.72 1048.46 2933.91 1046.05C2952.1 1043.64 2968.8 1056.44 2971.21 1074.63L3128.9 2265.72C3131.31 2283.91 3118.51 2300.61 3100.32 2303.02Z" />
							</g>
							<g id="&lt;Group&gt;" style="opacity: 0.302">
								<path id="&lt;Path&gt;" class="shp1" d="M3100.32 2303.02C3082.13 2305.43 3065.44 2292.63 3063.03 2274.44L3060.89 2258.25C3078.91 2255.69 3091.55 2239.1 3089.15 2221.01L2933.6 1046.11C2933.71 1046.09 2933.81 1046.06 2933.91 1046.05L2933.91 1046.05C2952.1 1043.64 2968.8 1056.44 2971.21 1074.63L3128.9 2265.72C3131.31 2283.91 3118.51 2300.61 3100.32 2303.02Z" />
							</g>
							<g id="&lt;Group&gt;">
								<path id="&lt;Compound Path&gt;" fill-rule="evenodd" class="shp1" d="M3095.93 2320.7C3070.95 2320.7 3049.16 2302.15 3045.79 2276.73L2888.1 1085.63C2886.32 1072.23 2889.87 1058.94 2898.1 1048.2C2906.32 1037.47 2918.23 1030.59 2931.63 1028.82C2959.26 1025.13 2984.78 1044.68 2988.44 1072.35L3146.14 2263.44C3147.91 2276.84 3144.36 2290.13 3136.14 2300.87C3127.92 2311.6 3116.01 2318.48 3102.6 2320.26L3102.61 2320.26C3100.36 2320.55 3098.13 2320.7 3095.93 2320.7ZM2938.28 1063.15C2937.59 1063.15 2936.89 1063.19 2936.19 1063.29C2932 1063.84 2928.28 1066 2925.7 1069.36C2923.13 1072.71 2922.02 1076.87 2922.57 1081.07L3080.27 2272.16C3081.41 2280.82 3089.38 2286.94 3098.04 2285.78C3102.24 2285.23 3105.96 2283.07 3108.53 2279.71C3111.1 2276.36 3112.22 2272.2 3111.66 2268.01L2953.97 1076.91C2952.91 1068.96 2946.09 1063.15 2938.28 1063.15Z" />
							</g>
						</g>
						<g id="&lt;Group&gt;">
							<path id="&lt;Path&gt;" class="shp2" d="M3602.85 1239.39L3778.11 1427.22L3030.97 1526.14L2974.58 1100.21L3721.72 1001.29L3636.84 1171.35L3602.85 1239.39Z" />
						</g>
						<g id="&lt;Group&gt;" style="opacity: 0.502">
							<g id="&lt;Group&gt;">
								<path id="&lt;Path&gt;" class="shp0" d="M3620.75 1258.57L3778.11 1427.22L3757.94 1429.89L3612.85 1274.39L3620.75 1258.57Z" />
							</g>
							<g id="&lt;Group&gt;">
								<path id="&lt;Path&gt;" class="shp0" d="M3036.24 1525.44L3030.97 1526.14L2974.58 1100.21L3721.72 1001.29L3702.31 1040.19L2984.58 1135.21L3036.24 1525.44Z" />
							</g>
						</g>
						<g id="&lt;Group&gt;" style="opacity: 0.302">
							<path id="&lt;Path&gt;" class="shp1" d="M3778.11 1427.22L3030.97 1526.14L3016.19 1414.53C3188.12 1421.84 3289.05 1374.13 3318.98 1271.41C3355.36 1306.45 3421.26 1305.83 3516.69 1269.54C3566.16 1250.71 3605.95 1212.82 3636.84 1171.35L3602.85 1239.39L3778.11 1427.22Z" />
						</g>
						<g id="&lt;Group&gt;">
							<path id="&lt;Compound Path&gt;" fill-rule="evenodd" class="shp1" d="M3030.98 1543.5C3027.18 1543.5 3023.46 1542.26 3020.4 1539.92C3016.74 1537.11 3014.35 1532.97 3013.74 1528.4L2957.35 1102.5C2956.09 1092.98 2962.79 1084.24 2972.31 1082.98L3719.43 984.06C3725.81 983.19 3732.13 985.97 3735.87 991.2C3739.61 996.44 3740.15 1003.31 3737.27 1009.07L3623.79 1236.35L3790.81 1415.33C3795.26 1420.09 3796.67 1426.94 3794.47 1433.07C3792.27 1439.2 3786.84 1443.58 3780.38 1444.44L3033.26 1543.35C3032.5 1543.45 3031.74 1543.5 3030.98 1543.5ZM2994.11 1115.17L3045.94 1506.59L3742.36 1414.39L3590.12 1251.25C3585.17 1245.94 3584.03 1238.11 3587.28 1231.62L3691.52 1022.84L2994.11 1115.17Z" />
						</g>
						<g id="&lt;Group&gt;">
							<path id="&lt;Path&gt;" class="shp3" d="M3473.61 1250.95C3484.92 1336.34 3424.86 1414.72 3339.47 1426.03C3254.08 1437.33 3175.69 1377.28 3164.38 1291.89C3153.08 1206.49 3213.14 1128.11 3298.53 1116.8C3383.92 1105.5 3462.31 1165.55 3473.61 1250.95Z" />
						</g>
						<g id="&lt;Group&gt;">
							<path id="&lt;Compound Path&gt;" fill-rule="evenodd" class="shp1" d="M3318.65 1438.73C3282.11 1438.73 3246.76 1426.81 3217.26 1404.21C3181.79 1377.03 3159.02 1337.67 3153.16 1293.37C3147.29 1249.07 3159.03 1205.15 3186.21 1169.67C3213.38 1134.21 3252.74 1111.44 3297.04 1105.58C3341.35 1099.73 3385.27 1111.45 3420.74 1138.62C3456.21 1165.8 3478.97 1205.16 3484.84 1249.46C3496.94 1340.9 3432.4 1425.15 3340.95 1437.26C3333.5 1438.24 3326.05 1438.73 3318.65 1438.73ZM3319.3 1126.75C3312.9 1126.75 3306.46 1127.17 3300.01 1128.03C3261.71 1133.1 3227.68 1152.78 3204.18 1183.45C3180.68 1214.12 3170.54 1252.1 3175.61 1290.4C3180.68 1328.7 3200.36 1362.74 3231.03 1386.23C3261.7 1409.73 3299.69 1419.88 3337.98 1414.81C3417.04 1404.34 3472.86 1331.5 3462.39 1252.43C3457.32 1214.13 3437.63 1180.09 3406.97 1156.6C3381.46 1137.06 3350.9 1126.75 3319.3 1126.75Z" />
						</g>
						<g id="&lt;Group&gt;">
							<path id="&lt;Path&gt;" class="shp1" d="M3263.88 1283.23C3259.01 1284.66 3253.83 1285.34 3248.55 1285.17C3243.33 1284.78 3238 1283.83 3232.96 1281.83C3228 1279.76 3223.15 1277.1 3218.89 1273.59C3214.69 1270.01 3210.96 1265.84 3207.85 1261.17C3204.89 1256.41 3202.7 1251.18 3201.13 1245.74C3199.71 1240.27 3199.14 1234.59 3199.35 1228.89C3199.72 1223.21 3200.86 1217.57 3202.83 1212.22C3204.95 1206.92 3207.76 1201.93 3211.2 1197.41C3224.97 1179.04 3250.63 1171.32 3271.68 1178.4C3282.22 1181.74 3291.43 1188.41 3297.86 1196.91C3301.02 1201.21 3303.54 1205.9 3305.24 1210.82C3306.93 1215.76 3307.64 1220.91 3307.78 1225.94C3302.67 1206.3 3286.86 1191.72 3269.04 1188.26C3260.18 1186.45 3251.03 1187.33 3242.77 1190.31C3234.59 1193.49 3227.44 1198.91 3222.14 1205.79C3211.78 1219.72 3209.94 1239.39 3218.17 1255.2C3220.2 1259.13 3222.71 1262.87 3225.76 1266.23C3228.93 1269.45 3232.37 1272.53 3236.33 1275C3240.33 1277.38 3244.63 1279.43 3249.27 1280.81C3253.9 1282.22 3258.79 1282.88 3263.88 1283.23Z" />
						</g>
						<g id="&lt;Group&gt;">
							<path id="&lt;Path&gt;" class="shp1" d="M3387.82 1262.3C3384.78 1253.05 3389.18 1241.48 3398.23 1235.85C3407.14 1230.02 3419.93 1230.58 3428.33 1237.44C3436.99 1243.94 3440.64 1256.05 3437.3 1265.98C3434.24 1276.04 3424.5 1283.17 3414.86 1283.02C3424.13 1280.61 3431.01 1273.15 3432.64 1264.74C3433.5 1260.56 3433.08 1256.24 3431.68 1252.34C3430.17 1248.48 3427.62 1245.1 3424.37 1242.6C3417.8 1237.69 3408.51 1236.82 3401.05 1240.73C3393.48 1244.43 3388.13 1252.7 3387.82 1262.3Z" />
						</g>
						<g id="&lt;Group&gt;">
							<path id="&lt;Path&gt;" class="shp1" d="M3348.17 1339.89C3357.81 1347.4 3361.3 1362.53 3355.81 1374.71C3350.61 1387.01 3336.9 1395.37 3323.36 1394.09C3309.79 1393.38 3297.53 1383.32 3294.07 1370.63C3290.22 1358.02 3295.38 1343.79 3305.53 1337.2C3297.56 1346.19 3295.6 1358.78 3299.79 1368.67C3301.81 1373.63 3305.27 1377.84 3309.45 1380.91C3313.72 1383.89 3318.74 1385.62 3323.87 1385.95C3334.15 1386.47 3344.43 1380.89 3349.47 1371.6C3354.77 1362.46 3354.56 1350.1 3348.17 1339.89Z" />
						</g>
					</g>
					<g id="&lt;Group&gt;">
						<g id="&lt;Group&gt;">
							<path id="&lt;Path&gt;" class="shp0" d="M2970.7 1889.3C2936.1 1857.9 2940.36 1824.89 2983.47 1790.29C3048.15 1738.39 3169.51 1759.95 3147.16 1854.97C3174.84 1882.65 3177.23 1912.99 3154.34 1945.99C3175.63 1973.14 3175.1 1999.22 3152.75 2024.24C3173.51 2076.94 3153.01 2105.15 3091.27 2108.87C2998.65 2114.46 2966.71 2078.53 2988.27 2015.46C2971.5 2000.02 2967.11 1979.92 2975.09 1955.17C2957.79 1937.87 2956.33 1915.92 2970.7 1889.3Z" />
						</g>
						<g id="&lt;Group&gt;" style="opacity: 0.302">
							<path id="&lt;Path&gt;" class="shp1" d="M3084.57 2109.19C2997.14 2112.66 2967.24 2076.98 2988.27 2015.46C2971.5 2000.02 2967.11 1979.92 2975.09 1955.17C2957.79 1937.87 2956.33 1915.92 2970.7 1889.3C2936.1 1857.9 2940.36 1824.89 2983.47 1790.29C3024.09 1757.7 3087.04 1754.1 3122.74 1779.44C3101.32 1782.87 3080.14 1791.41 3062.96 1805.2C3019.85 1839.8 3015.59 1872.8 3050.19 1904.21C3035.82 1930.82 3037.28 1952.78 3054.58 1970.08C3046.6 1994.83 3050.99 2014.92 3067.76 2030.36C3055.44 2066.4 3060.62 2093.56 3084.57 2109.19Z" />
						</g>
						<g id="&lt;Group&gt;">
							<path id="&lt;Compound Path&gt;" fill-rule="evenodd" class="shp1" d="M3073.4 2126.82C3027.3 2126.82 2995.28 2115.41 2978.06 2092.8C2963.7 2073.95 2960.63 2049.25 2968.88 2019.32C2960.88 2008.15 2950.25 1987.07 2956.13 1958.92C2948.36 1946.97 2938.09 1923.27 2950.21 1892.19C2942.62 1882.08 2932.99 1864.9 2933.64 1843.48C2934.38 1819.34 2947.48 1796.88 2972.59 1776.73C3016.69 1741.34 3085.24 1735.07 3128.64 1762.45C3158.45 1781.26 3171.73 1812.83 3165.85 1850C3181.05 1869.72 3195.9 1906.5 3174.85 1945.77C3185.57 1965.53 3193.15 1997.86 3172 2027.93C3175.51 2042.15 3179.03 2068.85 3164.58 2091.53C3151.22 2112.47 3126.91 2124.14 3092.31 2126.23C3085.77 2126.63 3079.46 2126.82 3073.4 2126.82ZM3064.57 1780.05C3039.97 1780.05 3013.78 1788.27 2994.36 1803.85C2977.65 1817.26 2968.93 1830.86 2968.41 1844.27C2967.71 1862.46 2982.34 1876.38 2982.48 1876.52C2988.25 1881.92 2989.75 1890.62 2986 1897.57C2970.77 1925.76 2987.22 1942.71 2987.39 1942.88C2992 1947.49 2993.64 1954.3 2991.64 1960.51C2983.18 1986.74 2999.87 2002.51 3000.04 2002.66C3005.11 2007.33 3006.95 2014.56 3004.72 2021.08C2997 2043.67 2997.34 2060.71 3005.73 2071.73C3017.42 2087.08 3047.43 2094.12 3090.22 2091.52C3113.07 2090.14 3128.23 2083.85 3135.25 2072.83C3145.87 2056.18 3136.66 2030.86 3136.57 2030.61C3134.16 2024.5 3135.4 2017.55 3139.78 2012.65C3162.59 1987.13 3142.91 1959.67 3140.59 1956.63C3136.02 1950.64 3135.76 1942.28 3140.05 1936.09C3165.03 1900.07 3137.95 1870.44 3134.78 1867.18C3130.64 1862.93 3128.87 1856.76 3130.23 1850.98C3136.54 1824.17 3129.76 1804.27 3110.09 1791.86C3097.45 1783.89 3081.39 1780.05 3064.57 1780.05Z" />
						</g>
						<g id="&lt;Group&gt;">
							<path id="&lt;Path&gt;" class="shp1" d="M3029.26 1914.36C3010.25 1914.36 2989.29 1911.98 2966.41 1906.15L2974.99 1872.45C3077.08 1898.46 3132.54 1844.98 3134.85 1842.68L3159.53 1867.18C3157.22 1869.52 3111.78 1914.36 3029.26 1914.36Z" />
						</g>
						<g id="&lt;Group&gt;">
							<path id="&lt;Path&gt;" class="shp1" d="M3055.2 1996.23C3027.82 1996.23 2997.27 1989.42 2965.92 1969.94L2984.27 1940.4C3065.3 1990.74 3140.59 1934.61 3143.76 1932.2L3164.97 1959.75C3162.26 1961.85 3116.73 1996.23 3055.2 1996.23Z" />
						</g>
						<g id="&lt;Group&gt;">
							<path id="&lt;Path&gt;" class="shp1" d="M3078.15 2065.6C3049.25 2065.6 3014.87 2056.82 2977.91 2029.43L2998.62 2001.49C3078.55 2060.75 3139.15 2012.89 3141.69 2010.82L3163.88 2037.6C3163.35 2038.04 3129.35 2065.6 3078.15 2065.6Z" />
						</g>
					</g>
					<g id="&lt;Group&gt;">
						<g id="&lt;Group&gt;">
							<path id="&lt;Path&gt;" class="shp0" d="M1475.9 2298.9C1452.95 2291.58 1429.04 2284.81 1404.17 2278.59C1374.85 2271.27 1357.1 2238.24 1366.96 2207.68C1367.11 2207.23 1367.26 2206.77 1367.42 2206.32C1375.86 2181.72 1399.96 2167.58 1424.02 2172C1445.87 2176.01 1480.57 2183.57 1510.69 2195.39C1545.48 2249.37 1533.88 2283.87 1475.9 2298.9Z" />
						</g>
						<g id="&lt;Group&gt;" style="opacity: 0.302">
							<path id="&lt;Path&gt;" class="shp1" d="M1522.99 2223.55C1530.23 2249.18 1529.33 2285.05 1475.9 2298.9C1452.95 2291.58 1429.04 2284.81 1404.17 2278.59C1374.85 2271.27 1357.1 2238.24 1366.96 2207.68C1367.11 2207.23 1367.26 2206.77 1367.42 2206.32C1368.8 2202.3 1370.63 2198.58 1372.78 2195.16C1378.78 2211.45 1391.94 2224.62 1409.14 2228.91C1434.01 2235.13 1457.92 2241.9 1480.87 2249.22C1502.6 2243.59 1515.65 2234.3 1522.99 2223.55Z" />
						</g>
						<g id="&lt;Group&gt;">
							<path id="&lt;Compound Path&gt;" fill-rule="evenodd" class="shp1" d="M1475.9 2316.29C1474.11 2316.29 1472.33 2316.02 1470.61 2315.47C1470.27 2315.36 1436.25 2304.53 1399.96 2295.47C1381.68 2290.9 1365.74 2278.45 1356.23 2261.32C1346.24 2243.33 1344.12 2221.84 1350.42 2202.34L1350.95 2200.74C1362.15 2168.1 1394.19 2148.88 1427.16 2154.9C1451.13 2159.3 1486.18 2167.1 1517.04 2179.21C1520.44 2180.54 1523.33 2182.91 1525.3 2185.97C1528.28 2190.59 1553.96 2232.19 1539.01 2270.47C1530.35 2292.64 1510.58 2307.87 1480.26 2315.73C1478.83 2316.11 1477.36 2316.29 1475.9 2316.29ZM1415.19 2188.59C1401.39 2188.59 1388.75 2197.74 1383.86 2211.96L1383.51 2213.02C1380.17 2223.39 1381.3 2234.84 1386.63 2244.44C1391.56 2253.31 1399.29 2259.45 1408.39 2261.73C1437.86 2269.09 1465.19 2277.36 1476.16 2280.76C1492.38 2275.77 1502.62 2268.07 1506.62 2257.82C1512.81 2241.95 1504.47 2220.35 1498.74 2209.45C1471.83 2199.55 1441.88 2192.96 1420.88 2189.11C1418.97 2188.76 1417.07 2188.59 1415.19 2188.59Z" />
						</g>
					</g>
					<g id="&lt;Group&gt;">
						<g id="&lt;Group&gt;">
							<path id="&lt;Path&gt;" class="shp0" d="M2137.14 2344.7C2089.94 2443.33 2040.43 2546.77 1988.59 2655.01C1872.57 2587.94 1697.63 2525.3 1463.76 2467.11L1446.72 2405.36C1467.32 2298.18 1504.5 2192.16 1558.26 2087.3C1736.76 2095.89 1905.63 2160.93 2010.16 2210.26C2054.67 2231.29 2090.42 2250.19 2117.42 2266.95L2137.14 2344.7Z" />
						</g>
						<g id="&lt;Group&gt;" style="opacity: 0.302">
							<path id="&lt;Path&gt;" class="shp1" d="M2137.14 2344.7C2089.94 2443.33 2040.43 2546.77 1988.59 2655.01C1872.57 2587.94 1697.63 2525.3 1463.76 2467.11L1446.72 2405.36C1795.91 2508.86 1983.73 2443.83 2010.16 2210.26C2054.67 2231.29 2090.42 2250.19 2117.42 2266.95L2137.14 2344.7Z" />
						</g>
						<g id="&lt;Group&gt;">
							<path id="&lt;Compound Path&gt;" fill-rule="evenodd" class="shp1" d="M1988.61 2672.4C1985.58 2672.4 1982.58 2671.61 1979.91 2670.07C1809.94 2571.82 1463.05 2484.85 1459.56 2483.99C1453.47 2482.47 1448.67 2477.78 1447 2471.73L1429.97 2409.99C1429.26 2407.41 1429.15 2404.71 1429.65 2402.08C1460.64 2240.74 1539.43 2085.9 1542.77 2079.38C1545.89 2073.31 1552.33 2069.63 1559.08 2069.95C1852.71 2084.11 2115.55 2245.33 2126.6 2252.19C2130.42 2254.57 2133.18 2258.33 2134.28 2262.69L2153.98 2340.41C2154.97 2344.35 2154.56 2348.52 2152.81 2352.19C2105.61 2450.84 2056.1 2554.29 2004.29 2662.52C2002.2 2666.89 1998.38 2670.19 1993.75 2671.62C1992.07 2672.15 1990.34 2672.4 1988.61 2672.4ZM1477.84 2452.74C1535.23 2467.45 1817.74 2542.33 1980.93 2630.79C2002.18 2586.38 2062.3 2460.79 2118.72 2342.86L2102.33 2278.19C2062.24 2254.61 1825.21 2121.21 1568.75 2105.31C1551.04 2141.9 1490.66 2272.54 1464.58 2404.67L1477.84 2452.74Z" />
						</g>
						<g id="&lt;Group&gt;">
							<g id="&lt;Group&gt;">
								<path id="&lt;Path&gt;" class="shp1" d="M1823.36 2295.5L1767.6 2275.24C1761.86 2273.15 1758.9 2266.81 1760.98 2261.07L1781.24 2205.31C1783.32 2199.57 1789.66 2196.61 1795.4 2198.69L1851.17 2218.95C1856.91 2221.03 1859.87 2227.37 1857.78 2233.11L1837.53 2288.88C1835.44 2294.62 1829.1 2297.58 1823.36 2295.5Z" />
							</g>
							<g id="&lt;Group&gt;">
								<path id="&lt;Path&gt;" class="shp1" d="M1941.81 2338.52L1886.04 2318.26C1880.3 2316.18 1877.34 2309.84 1879.43 2304.1L1899.68 2248.33C1901.77 2242.59 1908.11 2239.63 1913.85 2241.71L1969.61 2261.97C1975.35 2264.06 1978.32 2270.4 1976.23 2276.14L1955.97 2331.9C1953.89 2337.64 1947.55 2340.6 1941.81 2338.52Z" />
							</g>
							<g id="&lt;Group&gt;">
								<path id="&lt;Path&gt;" class="shp1" d="M1780.25 2409.77L1724.48 2389.51C1718.74 2387.42 1715.78 2381.08 1717.86 2375.34L1738.12 2319.58C1740.2 2313.84 1746.55 2310.88 1752.29 2312.96L1808.05 2333.22C1813.79 2335.3 1816.75 2341.64 1814.67 2347.38L1794.41 2403.15C1792.33 2408.89 1785.99 2411.85 1780.25 2409.77Z" />
							</g>
							<g id="&lt;Group&gt;">
								<path id="&lt;Path&gt;" class="shp1" d="M1898.69 2452.79L1842.93 2432.53C1837.19 2430.45 1834.23 2424.11 1836.31 2418.37L1856.57 2362.6C1858.65 2356.86 1864.99 2353.9 1870.73 2355.98L1926.5 2376.24C1932.24 2378.33 1935.2 2384.67 1933.11 2390.41L1912.86 2446.17C1910.77 2451.91 1904.43 2454.87 1898.69 2452.79Z" />
							</g>
							<g id="&lt;Group&gt;">
								<path id="&lt;Path&gt;" class="shp1" d="M1965.19 2598.41C1962.23 2598.41 1959.3 2597.66 1956.67 2596.18C1771.64 2492.23 1446.41 2423.06 1443.15 2422.38L1450.31 2388.35C1463.46 2391.11 1766.16 2455.51 1957.28 2556.9C1979.65 2509.23 2045.7 2369.37 2101.93 2259.07L2132.92 2274.86C2064.65 2408.76 1981.78 2586.58 1980.95 2588.36C1978.9 2592.75 1975.13 2596.09 1970.52 2597.57C1968.78 2598.13 1966.98 2598.41 1965.19 2598.41Z" />
							</g>
							<g id="&lt;Group&gt;">
								<path id="&lt;Path&gt;" class="shp1" d="M1972.13 2660.55L1948.7 2590.82L1981.67 2579.74L2005.09 2649.47L1972.13 2660.55Z" />
							</g>
							<g id="&lt;Group&gt;">
								<path id="&lt;Path&gt;" class="shp1" d="M1603.5 2445.3L1570.47 2434.41L1622.62 2276.38L1583.03 2267.14C1578.16 2266 1574.01 2262.81 1571.65 2258.4C1569.29 2253.98 1568.95 2248.76 1570.71 2244.08L1628.81 2089.67L1661.36 2101.92L1610.24 2237.78L1649.04 2246.84C1653.8 2247.95 1657.86 2251.01 1660.25 2255.26C1662.64 2259.52 1663.13 2264.59 1661.6 2269.22L1603.5 2445.3Z" />
							</g>
						</g>
					</g>
					<g id="&lt;Group&gt;">
						<g id="&lt;Group&gt;">
							<path id="&lt;Path&gt;" class="shp0" d="M2053.29 2511.41C2045.39 2448.61 2075.5 2430.37 2092.76 2425.09C2099.01 2423.17 2105.76 2423.78 2111.51 2426.88C2221.33 2486 2306.81 2574.22 2344.79 2617.33C2359.97 2634.56 2362.59 2659.58 2351.16 2679.5C2350.8 2680.12 2350.44 2680.74 2350.08 2681.36C2331.97 2711.99 2288.87 2715.88 2264.77 2689.69C2177.29 2594.63 2094.47 2545.43 2065.91 2530.05C2058.91 2526.28 2054.28 2519.3 2053.29 2511.41Z" />
						</g>
						<g id="&lt;Group&gt;" style="opacity: 0.302">
							<path id="&lt;Path&gt;" class="shp1" d="M2353.35 2630.58C2360.4 2646.03 2359.91 2664.25 2351.16 2679.5C2350.8 2680.12 2350.44 2680.74 2350.08 2681.36C2331.97 2711.99 2288.87 2715.88 2264.77 2689.69C2177.29 2594.63 2094.47 2545.43 2065.91 2530.05C2058.91 2526.28 2054.28 2519.3 2053.29 2511.41C2049.46 2480.93 2054.61 2461.01 2062.86 2447.91C2063 2449.22 2063.06 2450.44 2063.23 2451.79C2064.22 2459.68 2068.85 2466.66 2075.85 2470.43C2104.41 2485.81 2187.22 2535.01 2274.71 2630.08C2296.23 2653.46 2332.85 2652.79 2353.35 2630.58Z" />
						</g>
						<g id="&lt;Group&gt;">
							<path id="&lt;Compound Path&gt;" fill-rule="evenodd" class="shp1" d="M2304.31 2724.48C2284.39 2724.48 2265.65 2716.32 2251.98 2701.47C2167.22 2609.36 2087.85 2561.61 2057.66 2545.35C2045.82 2538.98 2037.74 2527.1 2036.04 2513.58C2026.28 2435.97 2068.89 2414.21 2087.66 2408.46C2098.33 2405.2 2110.02 2406.32 2119.76 2411.56C2230.5 2471.19 2316.46 2558.87 2357.84 2605.83C2377.99 2628.71 2381.37 2661.79 2366.24 2688.15L2365.05 2690.21C2353.72 2709.37 2334.4 2721.71 2312.04 2724.07C2309.45 2724.34 2306.87 2724.48 2304.31 2724.48ZM2074.15 2514.74C2105.89 2531.82 2189.23 2581.94 2277.57 2677.92C2285.47 2686.51 2296.72 2690.73 2308.4 2689.48C2319.7 2688.29 2329.43 2682.11 2335.11 2672.51L2336.05 2670.89C2343.79 2657.4 2342.04 2640.51 2331.74 2628.82C2291.9 2583.61 2209.24 2499.24 2103.27 2442.19C2101.66 2441.32 2099.68 2441.14 2097.86 2441.71C2075.3 2448.62 2065.86 2471.97 2070.54 2509.24C2070.84 2511.62 2072.19 2513.68 2074.15 2514.74Z" />
						</g>
					</g>
				</g>
				<g id="&lt;Group&gt;">
					<g id="&lt;Group&gt;">
						<path id="&lt;Path&gt;" class="shp0" d="M836.84 3429.33C837.31 3434.28 827.59 3439.56 812.68 3443.37C805.15 3445.3 799.7 3451.89 799.23 3459.65C798.3 3475.01 794.95 3485.56 790.01 3486.03C785.07 3486.5 779.79 3476.78 775.97 3461.87C774.05 3454.34 767.45 3448.89 759.7 3448.42C744.32 3447.49 733.75 3444.15 733.28 3439.2C732.8 3434.23 742.54 3428.95 757.46 3425.15C765 3423.22 770.45 3416.63 770.92 3408.86C771.85 3393.48 775.2 3382.94 780.14 3382.46C785.09 3381.99 790.37 3391.72 794.18 3406.65C796.11 3414.18 802.71 3419.63 810.48 3420.1C825.83 3421.01 836.37 3424.36 836.84 3429.33Z" />
					</g>
					<g id="&lt;Group&gt;">
						<path id="&lt;Path&gt;" class="shp0" d="M3045.02 2776.98C3045.02 2783.12 3032.44 2788.46 3013.66 2791.41C3004.18 2792.9 2996.72 2800.36 2995.23 2809.85C2992.28 2828.62 2986.93 2841.2 2980.8 2841.2C2974.67 2841.2 2969.32 2828.62 2966.38 2809.85C2964.89 2800.36 2957.42 2792.9 2947.94 2791.41C2929.14 2788.47 2916.54 2783.12 2916.54 2776.98C2916.54 2770.82 2929.13 2765.46 2947.91 2762.54C2957.41 2761.06 2964.89 2753.58 2966.38 2744.09C2969.32 2725.29 2974.67 2712.72 2980.8 2712.72C2986.93 2712.72 2992.28 2725.29 2995.23 2744.09C2996.71 2753.58 3004.2 2761.06 3013.69 2762.54C3032.45 2765.46 3045.02 2770.82 3045.02 2776.98Z" />
					</g>
					<g id="&lt;Group&gt;">
						<path id="&lt;Path&gt;" class="shp0" d="M2662.35 506.25C2662.35 513.05 2648.41 518.98 2627.59 522.25C2617.08 523.9 2608.8 532.18 2607.15 542.69C2603.88 563.51 2597.95 577.45 2591.15 577.45C2584.35 577.45 2578.42 563.51 2575.16 542.69C2573.51 532.18 2565.23 523.9 2554.71 522.25C2533.88 518.98 2519.9 513.05 2519.9 506.25C2519.9 499.41 2533.86 493.48 2554.69 490.23C2565.21 488.59 2573.51 480.31 2575.16 469.78C2578.42 448.94 2584.35 435 2591.15 435C2597.95 435 2603.88 448.94 2607.15 469.78C2608.8 480.31 2617.09 488.59 2627.62 490.23C2648.42 493.48 2662.35 499.41 2662.35 506.25Z" />
					</g>
					<g id="&lt;Group&gt;">
						<path id="&lt;Path&gt;" class="shp0" d="M3272.81 862.2C3272.81 872.32 3264.6 880.53 3254.48 880.53C3244.36 880.53 3236.15 872.32 3236.15 862.2C3236.15 852.08 3244.36 843.87 3254.48 843.87C3264.6 843.87 3272.81 852.08 3272.81 862.2Z" />
					</g>
					<g id="&lt;Group&gt;">
						<path id="&lt;Path&gt;" class="shp0" d="M3425.18 2802.04C3425.18 2814.04 3415.45 2823.77 3403.45 2823.77C3391.44 2823.77 3381.71 2814.04 3381.71 2802.04C3381.71 2790.03 3391.44 2780.3 3403.45 2780.3C3415.45 2780.3 3425.18 2790.03 3425.18 2802.04Z" />
					</g>
					<g id="&lt;Group&gt;">
						<path id="&lt;Path&gt;" class="shp0" d="M2621.04 3352.65C2621.04 3364.66 2611.31 3374.39 2599.3 3374.39C2587.3 3374.39 2577.57 3364.66 2577.57 3352.65C2577.57 3340.65 2587.3 3330.92 2599.3 3330.92C2611.31 3330.92 2621.04 3340.65 2621.04 3352.65Z" />
					</g>
					<g id="&lt;Group&gt;">
						<path id="&lt;Path&gt;" class="shp0" d="M740.04 1053.56C740.04 1065.57 730.31 1075.3 718.31 1075.3C706.3 1075.3 696.57 1065.57 696.57 1053.56C696.57 1041.56 706.3 1031.83 718.31 1031.83C730.31 1031.83 740.04 1041.56 740.04 1053.56Z" />
					</g>
					<g id="&lt;Group&gt;">
						<path id="&lt;Path&gt;" class="shp0" d="M2893.2 789.72C2893.2 799.85 2884.99 808.05 2874.87 808.05C2864.75 808.05 2856.54 799.85 2856.54 789.72C2856.54 779.6 2864.75 771.39 2874.87 771.39C2884.99 771.39 2893.2 779.6 2893.2 789.72Z" />
					</g>
					<g id="&lt;Group&gt;">
						<path id="&lt;Path&gt;" class="shp0" d="M679.42 591.73C679.42 603.73 669.69 613.47 657.69 613.47C645.69 613.47 635.95 603.73 635.95 591.73C635.95 579.73 645.69 569.99 657.69 569.99C669.69 569.99 679.42 579.73 679.42 591.73Z" />
					</g>
					<g id="&lt;Group&gt;">
						<path id="&lt;Path&gt;" class="shp0" d="M491.34 3398.15C492.42 3409.46 484.12 3419.52 472.8 3420.59C461.48 3421.67 451.43 3413.37 450.35 3402.05C449.27 3390.73 457.57 3380.68 468.89 3379.6C480.21 3378.52 490.26 3386.83 491.34 3398.15Z" />
					</g>
					<g id="&lt;Group&gt;">
						<path id="&lt;Path&gt;" class="shp0" d="M3406.15 581.99C3406.15 587.2 3401.93 591.42 3396.72 591.42C3391.52 591.42 3387.3 587.2 3387.3 581.99C3387.3 576.78 3391.52 572.56 3396.72 572.56C3401.93 572.56 3406.15 576.78 3406.15 581.99Z" />
					</g>
					<g id="&lt;Group&gt;">
						<path id="&lt;Path&gt;" class="shp0" d="M2989.53 3469.39C2989.53 3475.57 2984.52 3480.57 2978.35 3480.57C2972.18 3480.57 2967.17 3475.57 2967.17 3469.39C2967.17 3463.22 2972.18 3458.22 2978.35 3458.22C2984.52 3458.22 2989.53 3463.22 2989.53 3469.39Z" />
					</g>
					<g id="&lt;Group&gt;">
						<path id="&lt;Path&gt;" class="shp0" d="M1144.67 583.07C1144.67 589.24 1139.66 594.25 1133.49 594.25C1127.32 594.25 1122.31 589.24 1122.31 583.07C1122.31 576.89 1127.32 571.89 1133.49 571.89C1139.66 571.89 1144.67 576.89 1144.67 583.07Z" />
					</g>
					<g id="&lt;Group&gt;">
						<path id="&lt;Path&gt;" class="shp0" d="M339.44 1301.68C339.44 1307.85 334.43 1312.85 328.26 1312.85C322.09 1312.85 317.08 1307.85 317.08 1301.68C317.08 1295.5 322.09 1290.5 328.26 1290.5C334.43 1290.5 339.44 1295.5 339.44 1301.68Z" />
					</g>
					<g id="&lt;Group&gt;">
						<path id="&lt;Path&gt;" class="shp0" d="M549.05 3063.26C549.6 3069.08 545.33 3074.25 539.51 3074.8C533.69 3075.36 528.52 3071.09 527.96 3065.27C527.41 3059.45 531.68 3054.28 537.5 3053.72C543.32 3053.17 548.49 3057.44 549.05 3063.26Z" />
					</g>
					<g id="&lt;Group&gt;">
						<path id="&lt;Path&gt;" class="shp0" d="M3307.19 3178.39C3307.19 3184.56 3302.19 3189.57 3296.01 3189.57C3289.84 3189.57 3284.83 3184.56 3284.83 3178.39C3284.83 3172.21 3289.84 3167.21 3296.01 3167.21C3302.19 3167.21 3307.19 3172.21 3307.19 3178.39Z" />
					</g>
					<g id="&lt;Group&gt;">
						<path id="&lt;Path&gt;" class="shp0" d="M605.27 1710.54C605.27 1721.91 596.05 1731.13 584.68 1731.13C573.31 1731.13 564.09 1721.91 564.09 1710.54C564.09 1699.17 573.31 1689.95 584.68 1689.95C596.05 1689.95 605.27 1699.17 605.27 1710.54Z" />
					</g>
				</g>
			</g>
		</g>
	</g>
</svg>